# xmcd
#
# Track frame offsets:
#	150
#	11401
#	22652
#	33903
#	45153
#	56404
#	67655
#	78905
#	90156
#	101406
#	112656
#	123906
#	135157
#	146408
#	157659
#	168909
#	180160
#	191411
#	202661
#	213911
#
# Disc length: 3002 seconds
#
# Revision: 0
# Processed by: cddbd v1.5.1PL2 Copyright (c) Steve Scherf et al.
# Submitted via: dBpowerAMP V4.0
#
DISCID=c70bb814
DTITLE=Guitar Zack - Two-Thirty (No Matter What)
DYEAR=2005
DGENRE=Blues
TTITLE0=Lance the Boyle
TTITLE1=Sad Expression
TTITLE2=Don't Touch the Memories
TTITLE3=Simpleton in a Complex
TTITLE4=Shake Your Moracas
TTITLE5=Dick Groat
TTITLE6=Free Take One
TTITLE7=Aw Shucks That's Too Bad
TTITLE8=Bring Your 5 Dollars
TTITLE9=Staples and Rice
TTITLE10=You're Awefully Noisy
TTITLE11=Neffrey
TTITLE12=I Fell Down the Steps
TTITLE13=LLLLLLLLLLLove Song
TTITLE14=Too much mush
TTITLE15=Mexican Mush Fest
TTITLE16=Frantic Manic Organi
TTITLE17=I Lost a Button
TTITLE18=Take a Nap, Maniac Woman
TTITLE19=My Hair is Perfect
EXTD=
EXTT0=
EXTT1=
EXTT2=
EXTT3=
EXTT4=
EXTT5=
EXTT6=
EXTT7=
EXTT8=
EXTT9=
EXTT10=
EXTT11=
EXTT12=
EXTT13=
EXTT14=
EXTT15=
EXTT16=
EXTT17=
EXTT18=
EXTT19=
PLAYORDER=
